<svg xmlns="http://www.w3.org/2000/svg" xmlns:xlink="http://www.w3.org/1999/xlink" width="544.506" height="584.977" viewBox="0 0 544.506 584.977">
  <defs>
    <clipPath id="clip-path">
      <path id="Path_5" data-name="Path 5" d="M0,0H544.506V-584.977H0Z" fill="none"/>
    </clipPath>
  </defs>
  <g id="Group_32" data-name="Group 32" transform="translate(0 584.977)">
    <g id="Group_5" data-name="Group 5" clip-path="url(#clip-path)">
      <g id="Group_1" data-name="Group 1" transform="translate(4.741 -570.019)">
        <path id="Path_1" data-name="Path 1" d="M0,0H3.524V-11.738H8.29v-2.941H-4.741v2.941H0ZM53.628,0H57.3l.938-2.992h4.639L63.845,0h3.727L62.425-14.679H58.749Zm5.679-6.566,1.217-4.462,1.267,4.563.2.735H59.079ZM119.3.254c3.448,0,6.161-1.42,6.161-4.539,0-2.332-1.522-3.346-3.55-4.031l-3.27-1.115c-.837-.279-1.395-.659-1.395-1.344,0-.836.786-1.344,2.206-1.344,1.7,0,2.256.71,2.383,1.927h3.347c-.076-3.118-2.257-4.766-5.679-4.766-3.271,0-5.781,1.5-5.781,4.411,0,2.257,1.5,3.423,3.246,4.006l3.143,1.04c1.141.38,1.826.684,1.826,1.495,0,.888-.812,1.445-2.485,1.445-1.8,0-2.611-.633-2.738-2.028h-3.321c0,3.093,2.079,4.843,5.907,4.843M172.19,0h3.093V-6.465l-.456-4.944,2.282,7.555h2.282l2.281-7.555-.456,4.944V0h3.093V-14.679h-4.056L179.137-11l-.811,3.22L177.489-11l-1.115-3.676H172.19ZM230.1,0h3.676l.938-2.992h4.639L240.32,0h3.727L238.9-14.679h-3.676Zm5.679-6.566L237-11.028l1.267,4.563.2.735h-2.915ZM290.576,0h3.017V-6.313l-.406-4.969L296.914,0h4.31V-14.679h-3.017v6.313l.4,4.969-3.726-11.282h-4.31Zm58.8,0h10.7V-2.941h-3.6v-8.8h3.6v-2.941h-10.7v2.941h3.575v8.8h-3.575Zm57.2,0h3.676l.938-2.992h4.64L416.8,0h3.727l-5.147-14.679H411.7Zm5.679-6.566,1.217-4.462,1.267,4.563.2.735h-2.915ZM467.051,0h3.017V-6.313l-.406-4.969L473.389,0h4.31V-14.679h-3.017v6.313l.406,4.969-3.727-11.282h-4.31Z" fill="#2b2e34"/>
      </g>
      <g id="Group_2" data-name="Group 2" transform="translate(6.516 -5.493)">
        <path id="Path_2" data-name="Path 2" d="M0,0A3.665,3.665,0,0,0,3.98-3.98,3.653,3.653,0,0,0,0-7.961,3.653,3.653,0,0,0-3.98-3.98,3.665,3.665,0,0,0,0,0" fill="#2b2e34"/>
      </g>
      <g id="Group_3" data-name="Group 3" transform="translate(6.389 -58.658)">
        <path id="Path_3" data-name="Path 3" d="M0,0C3.448,0,6.161-1.42,6.161-4.538c0-2.333-1.521-3.347-3.55-4.031L-.659-9.685c-.837-.279-1.395-.659-1.395-1.343,0-.837.786-1.344,2.206-1.344,1.7,0,2.256.71,2.383,1.927H5.882C5.806-13.564,3.625-15.212.2-15.212c-3.271,0-5.781,1.5-5.781,4.412,0,2.256,1.5,3.422,3.246,4.006L.811-5.755c1.141.38,1.826.685,1.826,1.5,0,.887-.812,1.445-2.485,1.445-1.8,0-2.611-.634-2.738-2.028H-5.907C-5.907-1.749-3.828,0,0,0" fill="#2b2e34"/>
      </g>
      <g id="Group_4" data-name="Group 4" transform="translate(6.389 -115.448)">
        <path id="Path_4" data-name="Path 4" d="M0,0C3.448,0,6.161-1.42,6.161-4.538c0-2.333-1.521-3.347-3.55-4.031L-.659-9.685c-.837-.279-1.395-.659-1.395-1.343,0-.837.786-1.344,2.206-1.344,1.7,0,2.256.71,2.383,1.927H5.882C5.806-13.564,3.625-15.212.2-15.212c-3.271,0-5.781,1.5-5.781,4.412,0,2.256,1.5,3.422,3.246,4.006L.811-5.755c1.141.38,1.826.684,1.826,1.5,0,.887-.812,1.445-2.485,1.445-1.8,0-2.611-.634-2.738-2.028H-5.907C-5.907-1.749-3.828,0,0,0" fill="#2b2e34"/>
      </g>
    </g>
    <g id="Group_6" data-name="Group 6" transform="translate(1.192 -172.491)">
      <path id="Path_6" data-name="Path 6" d="M0,0H10.927V-2.941h-7.4V-6.009H9.761v-2.94H3.524v-2.789h7.4v-2.941H0Z" fill="#2b2e34"/>
    </g>
    <g id="Group_7" data-name="Group 7" transform="translate(1.192 -229.281)">
      <path id="Path_7" data-name="Path 7" d="M0,0H3.017V-6.313l-.406-4.969L6.338,0h4.31V-14.679H7.631v6.313L8.037-3.4,4.31-14.679H0Z" fill="#2b2e34"/>
    </g>
    <g id="Group_8" data-name="Group 8" transform="translate(1.166 -286.07)">
      <path id="Path_8" data-name="Path 8" d="M0,0H10.7V-2.941H7.1v-8.8h3.6v-2.941H0v2.941H3.575v8.8H0Z" fill="#2b2e34"/>
    </g>
    <g id="Group_13" data-name="Group 13" clip-path="url(#clip-path)">
      <g id="Group_9" data-name="Group 9" transform="translate(6.389 -342.607)">
        <path id="Path_9" data-name="Path 9" d="M0,0C3.448,0,6.161-1.42,6.161-4.538c0-2.333-1.521-3.347-3.55-4.031L-.659-9.685c-.837-.279-1.395-.659-1.395-1.343,0-.837.786-1.344,2.206-1.344,1.7,0,2.256.71,2.383,1.927H5.882C5.806-13.564,3.625-15.212.2-15.212c-3.271,0-5.781,1.5-5.781,4.412,0,2.256,1.5,3.422,3.246,4.006L.811-5.755c1.141.38,1.826.685,1.826,1.5,0,.887-.812,1.445-2.485,1.445-1.8,0-2.611-.634-2.738-2.028H-5.907C-5.907-1.749-3.828,0,0,0" fill="#2b2e34"/>
      </g>
      <g id="Group_10" data-name="Group 10" transform="translate(6.49 -399.397)">
        <path id="Path_10" data-name="Path 10" d="M0,0C3.93,0,5.679-2.079,5.679-5.78v-9.153H2.13V-5.78c0,2.1-.685,2.763-2.105,2.763s-2.1-.659-2.1-2.763v-9.153H-5.628V-5.78C-5.628-2.1-3.955,0,0,0" fill="#2b2e34"/>
      </g>
      <g id="Group_11" data-name="Group 11" transform="translate(1.192 -456.44)">
        <path id="Path_11" data-name="Path 11" d="M0,0H5.958c3.524,0,5.806-1.749,5.806-4.285A3.425,3.425,0,0,0,9.3-7.555a3.161,3.161,0,0,0,1.953-3.017c0-2.485-2.079-4.107-5.755-4.107H0ZM3.524-6.135h2.1c1.978,0,2.485.76,2.485,1.622,0,.786-.431,1.648-2.459,1.648H3.524Zm0-5.7H5.172c2,0,2.434.761,2.434,1.572,0,.862-.482,1.5-2.485,1.5h-1.6Z" fill="#2b2e34"/>
      </g>
      <g id="Group_12" data-name="Group 12" transform="translate(6.516 -516.602)">
        <path id="Path_12" data-name="Path 12" d="M0,0A3.665,3.665,0,0,0,3.98-3.98,3.653,3.653,0,0,0,0-7.961,3.653,3.653,0,0,0-3.98-3.98,3.665,3.665,0,0,0,0,0" fill="#2b2e34"/>
      </g>
    </g>
    <g id="Group_14" data-name="Group 14" transform="translate(532.159 -2.122)">
      <path id="Path_14" data-name="Path 14" d="M0,0H10.927V-2.941h-7.4V-6.009H9.761v-2.94H3.524v-2.789h7.4v-2.941H0Z" fill="#2b2e34"/>
    </g>
    <g id="Group_16" data-name="Group 16" clip-path="url(#clip-path)">
      <g id="Group_15" data-name="Group 15" transform="translate(537.635 -58.658)">
        <path id="Path_15" data-name="Path 15" d="M0,0C4.006,0,5.983-2.028,6.237-5.856h-3.6C2.51-3.879,1.8-3.017.025-3.017c-2.509,0-2.991-1.749-2.991-4.589s.482-4.589,2.941-4.589c1.749,0,2.535.888,2.662,2.865h3.6c-.178-3.879-2.1-5.882-6.06-5.882-4.867,0-6.769,3.017-6.769,7.733C-6.592-2.84-4.741,0,0,0" fill="#2b2e34"/>
      </g>
    </g>
    <g id="Group_17" data-name="Group 17" transform="translate(532.159 -115.701)">
      <path id="Path_17" data-name="Path 17" d="M0,0H3.017V-6.313l-.406-4.969L6.338,0h4.31V-14.679H7.631v6.313L8.037-3.4,4.31-14.679H0Z" fill="#2b2e34"/>
    </g>
    <g id="Group_18" data-name="Group 18" transform="translate(532.159 -172.491)">
      <path id="Path_18" data-name="Path 18" d="M0,0H10.927V-2.941h-7.4V-6.009H9.761v-2.94H3.524v-2.789h7.4v-2.941H0Z" fill="#2b2e34"/>
    </g>
    <g id="Group_20" data-name="Group 20" clip-path="url(#clip-path)">
      <g id="Group_19" data-name="Group 19" transform="translate(532.159 -229.281)">
        <path id="Path_19" data-name="Path 19" d="M0,0H3.524V-4.842H5.1L8.113,0h4.234l-3.9-5.552a4.387,4.387,0,0,0,2.815-4.259c0-3.5-2.967-4.868-6.465-4.868H0ZM3.524-11.789H4.792c1.85,0,2.839.583,2.839,2.079,0,1.47-.989,2.079-2.839,2.079H3.524Z" fill="#2b2e34"/>
      </g>
    </g>
    <g id="Group_21" data-name="Group 21" transform="translate(532.159 -286.07)">
      <path id="Path_21" data-name="Path 21" d="M0,0H10.927V-2.941h-7.4V-6.009H9.761v-2.94H3.524v-2.789h7.4v-2.941H0Z" fill="#2b2e34"/>
    </g>
    <g id="Group_22" data-name="Group 22" transform="translate(532.159 -342.86)">
      <path id="Path_22" data-name="Path 22" d="M0,0H3.524V-5.2H9.989V-8.138H3.524v-3.6h7.53v-2.941H0Z" fill="#2b2e34"/>
    </g>
    <g id="Group_23" data-name="Group 23" transform="translate(532.159 -399.65)">
      <path id="Path_23" data-name="Path 23" d="M0,0H3.017V-6.313l-.406-4.969L6.338,0h4.31V-14.679H7.631v6.313L8.037-3.4,4.31-14.679H0Z" fill="#2b2e34"/>
    </g>
    <g id="Group_31" data-name="Group 31" clip-path="url(#clip-path)">
      <g id="Group_24" data-name="Group 24" transform="translate(537.407 -456.186)">
        <path id="Path_24" data-name="Path 24" d="M0,0C4.563,0,6.516-3.093,6.516-7.707S4.563-15.212.127-15.212c-4.513,0-6.491,2.992-6.491,7.682C-6.364-2.814-4.361,0,0,0M.076-3.017c-2.408,0-2.814-1.952-2.814-4.589,0-2.662.406-4.589,2.814-4.589S2.89-10.268,2.89-7.606c0,2.637-.405,4.589-2.814,4.589" fill="#2b2e34"/>
      </g>
      <g id="Group_25" data-name="Group 25" transform="translate(537.635 -512.976)">
        <path id="Path_25" data-name="Path 25" d="M0,0C4.006,0,5.983-2.028,6.237-5.856h-3.6C2.51-3.879,1.8-3.017.025-3.017c-2.509,0-2.991-1.749-2.991-4.589s.482-4.589,2.941-4.589c1.749,0,2.535.888,2.662,2.865h3.6c-.178-3.879-2.1-5.882-6.06-5.882-4.867,0-6.769,3.017-6.769,7.733C-6.592-2.839-4.741,0,0,0" fill="#2b2e34"/>
      </g>
      <g id="Group_26" data-name="Group 26" transform="translate(537.483 -573.391)">
        <path id="Path_26" data-name="Path 26" d="M0,0A3.665,3.665,0,0,0,3.98-3.98,3.653,3.653,0,0,0,0-7.961,3.653,3.653,0,0,0-3.98-3.98,3.665,3.665,0,0,0,0,0" fill="#2b2e34"/>
      </g>
      <g id="Group_27" data-name="Group 27" transform="translate(90.713 -2.121)">
        <path id="Path_27" data-name="Path 27" d="M0,0H34.579V-2.758C28-4.667,26.094-9.546,26.094-26.942V-145.106h9.97c19.093,0,27.367,5.092,34.58,20.366l2.333-.424L71.7-148.5H-37.549l-1.273,23.336,2.333.424c7.213-15.274,15.487-20.366,34.58-20.366h10.4V-26.942C8.486-9.546,6.576-4.667,0-2.758ZM151.268,0c51.551,0,69.371-25.033,68.946-48.793-.212-20.79-15.486-37.973-50.065-39.671,24.184-4.455,33.518-17.607,33.518-32.033,0-17.184-13.365-28-46.035-28H107.991v2.758c6.364,1.909,8.486,6.788,8.486,24.184v94.616c0,17.4-2.122,22.275-8.486,24.184V0Zm1.909-3.182H144.9c-9.122,0-11.032-3.182-11.032-18.457V-85.706h21.639c31.821,0,45.4,17.82,45.4,42.217,0,23.548-13.152,40.307-47.732,40.307m.425-85.706h-19.73v-56.43h16.123c21.851,0,34.367,11.032,34.367,28.639,0,15.487-9.758,27.791-30.76,27.791m185,91.009c23.76,0,43.913-5.94,53.884-11.455l3.394-27.579-2.333-.212c-8.274,22.911-26.094,35-49.005,35-44.126,0-68.31-38.186-68.1-78.069,0-43.277,26.094-65.764,59.824-65.764,25.245,0,45.4,12.94,53.672,32.245l2.122-.424-.849-25.245c-8.273-5.3-29.488-10.607-47.732-10.607-49.853,0-84.857,33.519-84.857,78.705,0,46.247,31.185,73.4,79.978,73.4" fill="#2b2e34"/>
      </g>
      <g id="Group_28" data-name="Group 28" transform="translate(328.096 -63.229)">
        <path id="Path_28" data-name="Path 28" d="M0,0A3.665,3.665,0,0,0,3.98-3.98,3.653,3.653,0,0,0,0-7.961,3.653,3.653,0,0,0-3.98-3.98,3.665,3.665,0,0,0,0,0" fill="#2b2e34"/>
      </g>
      <g id="Group_29" data-name="Group 29" transform="translate(430.727 -63.229)">
        <path id="Path_29" data-name="Path 29" d="M0,0A3.665,3.665,0,0,0,3.98-3.98,3.653,3.653,0,0,0,0-7.961,3.653,3.653,0,0,0-3.98-3.98,3.665,3.665,0,0,0,0,0" fill="#2b2e34"/>
      </g>
      <g id="Group_30" data-name="Group 30" transform="translate(175.755 -63.229)">
        <path id="Path_30" data-name="Path 30" d="M0,0A3.665,3.665,0,0,0,3.98-3.98,3.653,3.653,0,0,0,0-7.961,3.653,3.653,0,0,0-3.98-3.98,3.665,3.665,0,0,0,0,0" fill="#2b2e34"/>
      </g>
    </g>
  </g>
</svg>
